<?xml version="1.0" standalone="no"?>
<!DOCTYPE svg PUBLIC "-//W3C//DTD SVG 20010904//EN"
 "http://www.w3.org/TR/2001/REC-SVG-20010904/DTD/svg10.dtd">
<svg version="1.0" xmlns="http://www.w3.org/2000/svg"
 width="984.000000pt" height="984.000000pt" viewBox="0 0 984.000000 984.000000"
 preserveAspectRatio="xMidYMid meet">
<metadata>
Created by potrace 1.11, written by Peter Selinger 2001-2013
</metadata>
<g transform="translate(0.000000,984.000000) scale(0.100000,-0.100000)"
fill="#000000" stroke="none">
<path d="M5255 9703 c-86 -19 -144 -37 -193 -60 -62 -30 -165 -94 -170 -105
-2 -5 -10 -8 -17 -8 -8 0 -20 -6 -27 -13 -7 -7 -74 -52 -148 -99 -74 -48 -140
-92 -147 -97 -7 -6 -14 -11 -17 -11 -6 0 -336 -214 -353 -229 -7 -6 -17 -11
-23 -11 -5 0 -10 -4 -10 -10 0 -5 -5 -10 -10 -10 -6 0 -58 -31 -116 -70 -58
-38 -110 -70 -115 -70 -5 0 -9 -4 -9 -8 0 -5 -12 -15 -27 -23 -16 -8 -49 -29
-74 -46 -26 -18 -49 -33 -53 -33 -4 0 -16 -9 -28 -20 -12 -11 -28 -20 -35 -20
-7 0 -13 -4 -13 -9 0 -5 -13 -14 -30 -21 -16 -7 -30 -16 -30 -21 0 -5 -4 -9
-10 -9 -5 0 -64 -36 -131 -80 -66 -44 -124 -80 -129 -80 -4 0 -10 -3 -12 -8
-3 -6 -327 -220 -352 -232 -14 -6 -69 -43 -76 -50 -3 -3 -13 -9 -22 -15 -23
-14 -223 -143 -333 -216 -49 -32 -97 -62 -105 -66 -8 -4 -17 -9 -20 -13 -3 -3
-26 -19 -52 -35 -27 -17 -48 -34 -48 -38 0 -5 -4 -6 -9 -3 -5 3 -14 -1 -21 -9
-7 -8 -18 -15 -25 -15 -8 0 -15 -3 -17 -8 -1 -4 -34 -27 -73 -52 -38 -24 -72
-47 -75 -50 -3 -3 -23 -17 -45 -30 -22 -13 -110 -69 -195 -125 -85 -55 -180
-116 -210 -135 -30 -19 -59 -38 -65 -43 -5 -4 -57 -38 -115 -75 -58 -36 -106
-70 -108 -74 -2 -4 -10 -8 -18 -8 -8 0 -14 -5 -14 -11 0 -5 -5 -7 -10 -4 -6 3
-13 -1 -16 -9 -3 -9 -10 -16 -15 -16 -7 0 -96 -54 -150 -92 -9 -6 -15 -18 -14
-27 2 -9 4 -19 4 -23 1 -4 19 -1 42 7 23 8 45 12 50 9 5 -3 9 0 9 5 0 6 3 10
8 10 4 -1 9 -1 12 1 4 1 19 4 65 14 6 1 15 5 21 8 6 4 21 9 35 12 28 6 72 18
149 41 49 14 67 19 105 29 6 1 37 11 70 21 33 10 67 19 75 20 8 1 22 5 30 8
15 7 392 116 420 122 8 2 36 10 62 18 27 8 48 13 48 11 0 -3 14 2 30 11 17 9
30 13 30 11 0 -3 24 3 54 14 30 10 57 16 60 13 3 -4 6 -1 6 6 0 7 4 10 8 7 4
-2 53 9 107 25 55 17 107 32 115 34 25 5 134 36 150 42 8 3 21 7 27 9 7 1 86
23 175 49 90 25 188 53 218 62 30 8 62 18 70 21 8 3 20 6 26 7 6 2 38 11 70
21 33 9 64 18 69 19 14 3 167 45 183 50 7 3 14 5 17 5 3 0 24 8 47 16 24 9 54
18 68 20 14 3 34 8 45 11 11 4 23 8 28 9 4 1 8 2 10 4 1 1 9 3 18 5 17 3 302
85 382 109 26 8 47 12 47 9 0 -3 7 0 15 7 8 7 15 10 15 7 0 -3 15 0 33 8 17 7
35 14 40 14 15 1 62 13 77 18 19 8 17 7 70 22 65 17 169 48 253 73 39 12 77
23 82 23 6 1 13 3 18 5 4 1 10 3 15 4 38 10 109 31 165 47 37 12 73 22 80 23
7 2 30 8 52 14 22 6 42 11 45 10 3 -1 14 4 26 10 11 6 32 13 45 16 43 9 63 14
168 46 57 17 111 33 120 35 9 2 41 11 71 20 30 9 60 17 65 19 6 1 30 8 55 15
25 7 52 15 60 17 8 2 129 37 267 76 233 67 252 75 246 93 -3 11 -8 22 -12 25
-10 8 -84 122 -100 153 -7 15 -17 27 -22 27 -5 0 -9 4 -9 10 0 12 -150 242
-165 252 -5 4 -7 8 -4 8 8 0 -161 259 -223 343 -43 57 -104 118 -148 147 -12
8 -28 20 -34 25 -17 15 -133 71 -166 80 -3 0 -14 4 -25 8 -11 3 -33 9 -50 13
-36 8 -231 13 -260 7z"/>
<path d="M7449 8645 c-4 -3 -19 -8 -35 -10 -16 -3 -45 -8 -64 -11 -19 -3 -37
-6 -40 -6 -3 0 -20 -6 -37 -13 -18 -8 -33 -12 -33 -9 0 3 -8 0 -18 -5 -11 -6
-30 -12 -43 -14 -13 -3 -73 -19 -134 -37 -60 -18 -117 -34 -125 -35 -8 -2 -16
-4 -17 -5 -2 -2 -6 -3 -10 -4 -5 -2 -28 -8 -53 -15 -25 -7 -49 -14 -55 -15 -5
-1 -16 -5 -22 -9 -7 -5 -13 -6 -13 -3 0 3 -12 1 -27 -5 -16 -6 -35 -12 -43
-14 -8 -3 -40 -11 -70 -20 -30 -9 -59 -17 -65 -19 -13 -3 -76 -22 -183 -53
-45 -13 -91 -25 -102 -26 -11 -1 -20 -5 -20 -9 0 -4 -3 -7 -7 -6 -11 3 -74
-12 -98 -22 -18 -8 -89 -28 -370 -106 -49 -14 -97 -28 -105 -31 -8 -3 -24 -8
-35 -10 -28 -6 -38 -9 -55 -16 -13 -5 -309 -91 -350 -102 -8 -2 -16 -4 -17 -5
-2 -2 -11 -3 -20 -4 -10 -1 -56 -14 -103 -28 -47 -14 -137 -40 -200 -58 -63
-18 -150 -43 -194 -57 -43 -13 -88 -25 -100 -28 -11 -2 -21 -4 -21 -5 0 -1 -7
-3 -15 -5 -41 -11 -91 -25 -155 -45 -38 -11 -77 -23 -85 -25 -8 -1 -55 -15
-105 -29 -88 -26 -115 -33 -145 -41 -8 -2 -15 -4 -15 -5 0 -1 -11 -3 -25 -6
-14 -2 -34 -8 -45 -13 -18 -8 -81 -27 -124 -36 -28 -7 -254 -73 -318 -93 -35
-11 -63 -18 -63 -16 0 2 -12 -1 -27 -7 -16 -6 -35 -12 -43 -14 -8 -2 -55 -15
-105 -30 -49 -14 -97 -28 -105 -30 -8 -3 -49 -14 -90 -25 -41 -12 -82 -23 -90
-25 -8 -2 -62 -18 -120 -35 -96 -29 -263 -77 -350 -101 -40 -11 -39 -11 -100
-29 -25 -7 -51 -14 -58 -16 -7 -1 -59 -16 -115 -33 -275 -81 -313 -92 -327
-93 -8 0 -21 -5 -28 -11 -6 -5 -12 -7 -12 -3 0 3 -12 1 -27 -5 -16 -6 -37 -13
-49 -15 -11 -2 -47 -12 -80 -23 -32 -10 -75 -22 -94 -26 -19 -4 -41 -12 -48
-17 -6 -6 -12 -8 -12 -4 0 3 -15 0 -34 -8 -19 -8 -37 -12 -40 -9 -2 3 -11 1
-18 -3 -7 -5 -17 -9 -23 -11 -5 -1 -44 -12 -85 -23 -76 -22 -161 -46 -258 -73
-28 -9 -52 -12 -52 -9 0 4 -4 2 -8 -5 -4 -6 -19 -13 -32 -15 -14 -2 -31 -7
-38 -12 -7 -4 -16 -6 -19 -3 -2 3 -25 -3 -49 -13 -24 -11 -44 -17 -44 -15 0 2
-13 -1 -30 -6 -24 -9 -27 -14 -19 -27 10 -16 280 -17 3917 -15 2149 0 3910 1
3914 2 8 1 6 11 -22 106 -12 39 -22 75 -24 80 -1 6 -10 37 -20 70 -10 33 -20
67 -22 75 -2 12 -74 261 -130 455 -8 28 -17 57 -19 65 -2 8 -4 15 -5 15 -1 0
-3 7 -5 15 -1 8 -9 35 -16 60 -7 25 -13 48 -15 53 -1 4 -2 8 -3 10 -2 1 -4 11
-6 22 -3 11 -22 80 -44 154 -22 74 -38 138 -35 143 3 4 0 8 -5 8 -6 0 -11 11
-11 25 0 14 -4 25 -10 25 -5 0 -10 7 -10 15 0 9 -12 39 -26 68 -83 163 -232
305 -394 376 -79 34 -92 39 -120 44 -14 3 -36 8 -49 11 -66 15 -194 22 -212
11 -4 -3 -9 0 -11 6 -2 5 -6 8 -9 4z"/>
<path d="M719 6546 c-2 -2 -22 -7 -44 -10 -61 -9 -69 -11 -83 -20 -7 -4 -16
-5 -19 -2 -3 3 -18 0 -32 -8 -14 -7 -44 -21 -66 -31 -61 -29 -155 -87 -155
-96 0 -5 -6 -9 -12 -9 -16 0 -146 -137 -153 -161 -4 -11 -10 -19 -14 -19 -8 0
-88 -152 -83 -158 1 -1 -4 -15 -12 -30 -8 -15 -16 -41 -19 -57 -3 -17 -10 -52
-16 -80 -12 -58 -10 -5043 2 -5087 4 -15 12 -39 17 -53 5 -14 7 -25 4 -25 -2
0 2 -14 11 -30 9 -17 13 -30 11 -30 -10 0 67 -137 107 -190 56 -74 90 -108
171 -170 57 -43 160 -100 181 -101 3 0 25 -8 49 -19 24 -10 47 -16 49 -13 3 3
12 1 19 -3 7 -4 22 -10 33 -13 11 -2 1912 -6 4225 -8 4072 -3 4208 -2 4295 16
241 50 440 197 558 411 33 61 77 193 85 254 4 28 7 1181 7 2561 l0 2510 -23
70 c-12 39 -24 75 -25 80 -13 44 -72 149 -122 214 -13 17 -128 133 -146 147
-84 64 -266 144 -336 147 -7 0 -13 4 -13 9 0 7 -8442 12 -8451 4z"/>
</g>
</svg>
