<?xml version="1.0" standalone="no"?>
<!DOCTYPE svg PUBLIC "-//W3C//DTD SVG 20010904//EN"
 "http://www.w3.org/TR/2001/REC-SVG-20010904/DTD/svg10.dtd">
<svg version="1.0" xmlns="http://www.w3.org/2000/svg"
 width="1024.000000pt" height="1024.000000pt" viewBox="0 0 1024.000000 1024.000000"
 preserveAspectRatio="xMidYMid meet">
<metadata>
Created by potrace 1.11, written by Peter Selinger 2001-2013
</metadata>
<g transform="translate(0.000000,1024.000000) scale(0.100000,-0.100000)"
fill="#000000" stroke="none">
<path d="M5375 9400 c-84 -20 -154 -53 -255 -120 -41 -27 -85 -55 -98 -62 -12
-7 -118 -74 -235 -150 -117 -75 -439 -281 -717 -458 -278 -177 -521 -332 -540
-345 -19 -12 -69 -44 -110 -70 -41 -26 -101 -65 -134 -86 -32 -22 -60 -39 -63
-39 -3 0 -23 -13 -46 -29 -23 -16 -206 -134 -407 -262 -201 -127 -394 -251
-430 -274 -36 -23 -198 -126 -360 -229 -162 -104 -301 -193 -308 -200 -17 -16
-4 -48 17 -42 9 2 50 14 91 26 111 32 164 47 280 79 58 16 155 44 215 61 61
17 148 42 195 55 47 13 166 46 265 74 99 29 187 53 195 55 17 4 117 33 500
142 146 41 274 78 285 80 11 3 25 6 30 8 75 20 105 29 130 37 36 11 913 259
935 264 19 4 351 97 470 132 47 13 117 33 155 44 116 32 228 63 493 139 139
39 261 73 270 75 9 2 40 11 67 19 28 8 102 29 165 46 63 18 116 33 117 34 1 1
-22 38 -51 81 -29 44 -145 220 -258 390 -113 171 -221 326 -239 345 -162 166
-401 235 -624 180z"/>
<path d="M7373 8450 c-29 -6 -85 -19 -125 -31 -40 -11 -95 -27 -123 -34 -27
-8 -90 -26 -140 -40 -49 -14 -94 -28 -100 -29 -82 -22 -162 -44 -290 -81 -27
-8 -131 -37 -230 -64 -99 -28 -204 -58 -233 -67 -29 -8 -61 -17 -70 -19 -9 -2
-120 -33 -247 -70 -126 -36 -239 -68 -249 -70 -11 -3 -58 -16 -106 -30 -48
-14 -95 -28 -106 -30 -10 -3 -57 -16 -104 -29 -199 -57 -278 -79 -325 -91 -53
-14 -701 -198 -940 -266 -77 -22 -147 -42 -155 -44 -8 -1 -71 -19 -140 -38
-69 -20 -145 -41 -170 -48 -61 -17 -54 -15 -155 -44 -49 -15 -106 -31 -125
-36 -55 -15 -56 -15 -230 -64 -91 -25 -228 -64 -305 -86 -77 -23 -146 -42
-155 -44 -8 -2 -80 -22 -160 -45 -80 -23 -152 -44 -160 -45 -8 -2 -71 -20
-140 -40 -69 -20 -132 -38 -140 -40 -14 -3 -301 -83 -465 -130 -53 -15 -81
-28 -83 -39 -2 -10 4 -16 15 -17 105 -4 7115 0 7120 4 3 4 -18 86 -47 184 -28
98 -60 207 -70 243 -18 62 -81 280 -189 648 -28 95 -65 201 -82 235 -89 180
-250 317 -444 377 -80 25 -248 35 -332 20z"/>
<path d="M1327 6583 c-1 0 -27 -4 -57 -8 -144 -17 -303 -97 -411 -204 -114
-114 -186 -252 -209 -401 -8 -55 -10 -667 -8 -2315 3 -2506 -4 -2271 75 -2431
87 -175 231 -300 431 -371 l77 -28 3860 -3 c3543 -2 3866 -1 3935 14 151 33
265 96 372 205 100 103 154 201 189 344 18 78 19 142 19 2315 -1 2430 2 2294
-56 2432 -102 242 -323 411 -580 444 -47 6 -7631 13 -7637 7z"/>
</g>
</svg>
