<svg xmlns="http://www.w3.org/2000/svg" width="16" height="24" viewBox="0 0 16 24">
  <path fill="#3E485B" d="M466.007902,676 C462.824923,676 460.244282,678.666216 460.244282,681.955056 L460.244282,684.181625 C459.127274,684.38805 458,684.673192 458,685.037611 L458,696.703754 C458,696.703754 458,697.030907 458.344869,697.172571 C459.618304,697.6961 464.61789,699.526987 465.765292,699.946257 C465.916451,700.001527 465.94833,699.999991 466.000743,699.999991 C466.055857,699.999991 466.08436,700.001945 466.234303,699.947094 C467.379543,699.528801 472.39642,697.693309 473.661885,697.175642 C473.990544,697.041236 474,696.708499 474,696.708499 L474,685.038169 C474,684.67389 472.888395,684.38805 471.771252,684.181485 L471.771252,681.954917 C471.771388,678.666216 469.190882,676 466.007902,676 Z M466.007902,678.845983 C467.880164,678.845983 469.01919,680.020608 469.01919,681.955056 L469.01919,683.894807 C466.905264,683.735697 465.10892,683.735697 462.994723,683.894807 L462.994723,681.955056 C462.994723,680.020469 464.135371,678.845983 466.007902,678.845983 Z M466.001681,687.000071 C468.717227,687.004505 471,687.211052 471,687.605837 C471,687.605837 471,694.94669 471,695.055255 C471,695.163964 470.983193,695.182273 470.882213,695.221323 C470.781373,695.260515 466.239496,696.936777 466.239496,696.936777 C466.239496,696.936777 466.053081,697 466.001821,697 C465.943697,697 465.757143,696.934203 465.757143,696.934203 C465.757143,696.934203 461.217227,695.259514 461.115266,695.220178 C461.013165,695.180986 461,695.160674 461,695.051107 C461,694.930383 461,687.60555 461,687.60555 C461,687.200038 463.286275,686.995636 466.001681,687.000071 Z" transform="translate(-458 -676)"/>
</svg>
