<?xml version="1.0" encoding="UTF-8"?>
<svg width="158px" height="358px" viewBox="0 0 158 358" version="1.1" xmlns="http://www.w3.org/2000/svg" xmlns:xlink="http://www.w3.org/1999/xlink">
    <!-- Generator: Sketch 52.2 (67145) - http://www.bohemiancoding.com/sketch -->
    <title>Group</title>
    <desc>Created with Sketch.</desc>
    <g id="Page-2" stroke="none" stroke-width="1" fill="none" fill-rule="evenodd">
        <g id="SW-/-Send-Funds-3.0" transform="translate(-433.000000, -226.000000)">
            <g id="Group-2" transform="translate(320.000000, 227.000000)">
                <g id="Group" transform="translate(114.000000, 0.000000)">
                    <rect id="Rectangle" fill-opacity="0.2" fill="#3E485B" fill-rule="nonzero" x="58" y="252" width="40" height="33"></rect>
                    <rect id="Rectangle" fill-opacity="0.2" fill="#3E485B" fill-rule="nonzero" x="74" y="285" width="7" height="72"></rect>
                    <path d="M53.590946,251.543635 C48.2549923,239.458199 40.6298724,228.610104 31.2651499,219.548913 L31.2294022,219.572221 C13.2688433,201.262226 2.19315438,176.174546 2.19315438,148.5 C1.11736022,131.077049 0.450693557,113.577049 0.193154381,96 C-0.0643847938,78.4229513 -0.0643847938,50.4229513 0.193154381,12 C0.193154381,5.372583 5.56573738,-1.42108547e-13 12.1931544,-1.42108547e-13 C41.5264877,-1.42108547e-13 114.859821,-1.42108547e-13 144.193154,-1.42108547e-13 C150.820571,-1.42108547e-13 156.193154,5.372583 156.193154,12 L156.193154,96 L154.193154,148.5 C154.193154,176.174546 143.117465,201.262226 125.156907,219.572221 L125.121159,219.548913 C115.756436,228.610104 108.131316,239.458199 102.795363,251.543635 L53.590946,251.543635 Z" id="Path" stroke-opacity="0.2" stroke="#3E485B" fill="#F5F6F8" fill-rule="nonzero"></path>
                    <rect id="Rectangle" stroke-opacity="0.2" stroke="#3E485B" fill="#FFFFFF" fill-rule="nonzero" x="22.5" y="38.5" width="111" height="111" rx="4"></rect>
                    <rect id="Rectangle" fill="#F5F6F8" fill-rule="nonzero" x="28" y="47" width="100" height="12" rx="1"></rect>
                    <rect id="Rectangle-Copy-10" fill="#F5F6F8" fill-rule="nonzero" x="28" y="62" width="100" height="12" rx="1"></rect>
                    <rect id="Rectangle-Copy-11" fill="#2C71F4" fill-rule="nonzero" x="28" y="77" width="100" height="12" rx="1"></rect>
                    <rect id="Rectangle-Copy-12" fill="#2C71F4" fill-rule="nonzero" x="28" y="92" width="100" height="12" rx="1"></rect>
                    <rect id="Rectangle" fill="#00E298" fill-rule="nonzero" x="80" y="125" width="48" height="16" rx="2"></rect>
                    <rect id="Rectangle-Copy-9" fill="#F5F6F8" fill-rule="nonzero" x="28" y="125" width="48" height="16" rx="2"></rect>
                    <path d="M106.812484,130.296889 C106.843734,130.265639 106.8854,130.250014 106.937483,130.250014 C106.989567,130.250014 107.036441,130.265639 107.078108,130.296889 L107.515607,130.750013 C107.557274,130.781262 107.578107,130.822929 107.578107,130.875012 C107.578107,130.927095 107.557274,130.97397 107.515607,131.015637 L102.828118,135.703126 C102.796868,135.734376 102.755202,135.750001 102.703119,135.750001 C102.651035,135.750001 102.604161,135.734376 102.562494,135.703126 L100.484374,133.609381 C100.442707,133.578131 100.421874,133.536464 100.421874,133.484381 C100.421874,133.432298 100.442707,133.385423 100.484374,133.343756 L100.921873,132.906257 C100.963539,132.864591 101.010414,132.843758 101.062497,132.843758 C101.114581,132.843758 101.156247,132.864591 101.187497,132.906257 L102.703119,134.421879 L106.812484,130.296889 Z" id="check-copy" stroke="#FFFFFF" stroke-width="2" fill="#FFFFFF"></path>
                </g>
            </g>
        </g>
    </g>
</svg>