<?xml version="1.0" encoding="UTF-8"?>
<svg width="158px" height="358px" viewBox="0 0 158 358" version="1.1" xmlns="http://www.w3.org/2000/svg" xmlns:xlink="http://www.w3.org/1999/xlink">
    <!-- Generator: Sketch 52.2 (67145) - http://www.bohemiancoding.com/sketch -->
    <title>Group</title>
    <desc>Created with Sketch.</desc>
    <g id="Page-2" stroke="none" stroke-width="1" fill="none" fill-rule="evenodd">
        <g id="SW-/-Send-Funds-3.0" transform="translate(-433.000000, -226.000000)" fill-rule="nonzero">
            <g id="Group" transform="translate(434.000000, 227.000000)">
                <rect id="Rectangle" fill-opacity="0.2" fill="#3E485B" x="58" y="252" width="40" height="33"></rect>
                <rect id="Rectangle" fill-opacity="0.2" fill="#3E485B" x="74" y="285" width="7" height="72"></rect>
                <path d="M53.590946,251.543635 C48.2549923,239.458199 40.6298724,228.610104 31.2651499,219.548913 L31.2294022,219.572221 C13.2688433,201.262226 2.19315438,176.174546 2.19315438,148.5 C1.11736022,131.077049 0.450693557,113.577049 0.193154381,96 C-0.0643847938,78.4229513 -0.0643847938,50.4229513 0.193154381,12 C0.193154381,5.372583 5.56573738,-1.42108547e-13 12.1931544,-1.42108547e-13 C41.5264877,-1.42108547e-13 114.859821,-1.42108547e-13 144.193154,-1.42108547e-13 C150.820571,-1.42108547e-13 156.193154,5.372583 156.193154,12 L156.193154,96 L154.193154,148.5 C154.193154,176.174546 143.117465,201.262226 125.156907,219.572221 L125.121159,219.548913 C115.756436,228.610104 108.131316,239.458199 102.795363,251.543635 L53.590946,251.543635 Z" id="Path" stroke-opacity="0.2" stroke="#3E485B" fill="#F5F6F8"></path>
                <rect id="Rectangle" stroke-opacity="0.2" stroke="#3E485B" fill="#FFFFFF" x="22.5" y="38.5" width="111" height="111" rx="4"></rect>
                <rect id="Rectangle" fill="#F5F6F8" x="28" y="47" width="100" height="12" rx="1"></rect>
                <rect id="Rectangle-Copy-11" fill="#3E485B" x="28" y="62" width="100" height="12" rx="1"></rect>
                <rect id="Rectangle-Copy-12" fill="#3E485B" x="28" y="77" width="100" height="12" rx="1"></rect>
                <rect id="Rectangle" fill="#F5F6F8" x="80" y="125" width="48" height="16" rx="2"></rect>
                <rect id="Rectangle-Copy-9" fill="#F5F6F8" x="28" y="125" width="48" height="16" rx="2"></rect>
            </g>
        </g>
    </g>
</svg>