<?xml version="1.0" encoding="UTF-8"?>
<svg width="158px" height="358px" viewBox="0 0 158 358" version="1.1" xmlns="http://www.w3.org/2000/svg" xmlns:xlink="http://www.w3.org/1999/xlink">
    <!-- Generator: Sketch 52.2 (67145) - http://www.bohemiancoding.com/sketch -->
    <title>Group 2</title>
    <desc>Created with Sketch.</desc>
    <g id="Page-2" stroke="none" stroke-width="1" fill="none" fill-rule="evenodd">
        <g id="SW-/-Send-Funds-2.1" transform="translate(-433.000000, -225.000000)">
            <g id="Group-2" transform="translate(434.000000, 226.000000)">
                <rect id="Rectangle" fill="#3E485B" fill-rule="nonzero" x="58" y="252" width="40" height="33" rx="1"></rect>
                <path d="M83.9374692,261.875027 C83.999969,261.791693 84.0833023,261.750027 84.1874686,261.750027 C84.2916348,261.750027 84.3749681,261.791693 84.437468,261.875027 L84.8124671,262.218776 C84.8749669,262.302109 84.9062168,262.395859 84.9062168,262.500025 C84.9062168,262.604191 84.8749669,262.687525 84.8124671,262.750024 L75.4374894,272.125002 C75.3541561,272.208335 75.2656148,272.250002 75.1718651,272.250002 C75.0781153,272.250002 74.989574,272.208335 74.9062407,272.125002 L71.1874996,268.406261 C71.1249997,268.343761 71.0937498,268.260428 71.0937498,268.156262 C71.0937498,268.052095 71.1249997,267.958346 71.1874996,267.875012 L71.5624987,267.531263 C71.6249985,267.44793 71.7083318,267.406263 71.8124981,267.406263 C71.9166643,267.406263 71.9999976,267.44793 72.0624975,267.531263 L75.1562401,270.625006 L83.9374692,261.875027 Z" id="check" fill="#FFFFFF"></path>
                <path d="M53.590946,251.543635 C48.2549923,239.458199 40.6298724,228.610104 31.2651499,219.548913 L31.2294022,219.572221 C13.2688433,201.262226 2.19315438,176.174546 2.19315438,148.5 C1.11736022,131.077049 0.450693557,113.577049 0.193154381,96 C-0.0643847938,78.4229513 -0.0643847938,50.4229513 0.193154381,12 C0.193154381,5.372583 5.56573738,-1.42108547e-13 12.1931544,-1.42108547e-13 C41.5264877,-1.42108547e-13 114.859821,-1.42108547e-13 144.193154,-1.42108547e-13 C150.820571,-1.42108547e-13 156.193154,5.372583 156.193154,12 L156.193154,96 L154.193154,148.5 C154.193154,176.174546 143.117465,201.262226 125.156907,219.572221 L125.121159,219.548913 C115.756436,228.610104 108.131316,239.458199 102.795363,251.543635 L53.590946,251.543635 Z" id="Path" stroke-opacity="0.2" stroke="#3E485B" fill="#F5F6F8" fill-rule="nonzero" stroke-linecap="round" stroke-linejoin="round"></path>
                <rect id="Rectangle" stroke-opacity="0.2" stroke="#3E485B" fill="#FFFFFF" fill-rule="nonzero" x="22.5" y="40.5" width="111" height="111" rx="4"></rect>
                <path d="M74,285 L81,285 L81,356 C81,356.552285 80.5522847,357 80,357 L75,357 C74.4477153,357 74,356.552285 74,356 L74,285 Z" id="Rectangle" fill="#3E485B" fill-rule="nonzero"></path>
                <g id="Group" transform="translate(45.000000, 54.000000)">
                    <circle id="Oval" stroke-opacity="0.2" stroke="#3E485B" fill-rule="nonzero" cx="32.5" cy="32.5" r="32.5"></circle>
                    <text id="My-TREZOR" font-family="ArialMT, Arial" font-size="10" font-weight="normal" fill="#717A8A">
                        <tspan x="4" y="82">My TREZOR</tspan>
                    </text>
                    <path d="M32.5123475,14 C27.5389421,14 23.5066909,18.2215086 23.5066909,23.4288389 L23.5066909,26.9542394 C21.761366,27.2810788 20,27.7325545 20,28.3095508 L20,46.7809438 C20,46.7809438 20,47.2989366 20.5388577,47.5232381 C22.5285998,48.3521591 30.3404534,51.2510624 32.1332686,51.9149064 C32.3694542,52.0024172 32.4192663,51.9999863 32.5011609,51.9999863 C32.5872768,51.9999863 32.6318122,52.0030801 32.8660982,51.9162324 C34.6555363,51.2539353 42.4944067,48.3477394 44.4716957,47.5280998 C44.9852252,47.3152896 45,46.7884573 45,46.7884573 L45,28.3104347 C45,27.7336595 43.2631179,27.2810788 41.517582,26.9540185 L41.517582,23.4286179 C41.5177931,18.2215086 37.4857529,14 32.5123475,14 Z M32.5123475,18.5061395 C35.4377559,18.5061395 37.2174849,20.3659634 37.2174849,23.4288389 L37.2174849,26.5001118 C33.9144751,26.248187 31.1076871,26.248187 27.8042551,26.5001118 L27.8042551,23.4288389 C27.8042551,20.3657424 29.5865169,18.5061395 32.5123475,18.5061395 Z M32.5007387,31.0343166 C36.5931445,31.0411672 40.0333488,31.360272 40.0333488,31.9701952 C40.0333488,31.9701952 40.0333488,43.3114528 40.0333488,43.4791817 C40.0333488,43.6471316 40.0080206,43.6754179 39.8558403,43.7357473 C39.703871,43.7962976 32.8591329,46.3860406 32.8591329,46.3860406 C32.8591329,46.3860406 32.5782009,46.4837167 32.5009498,46.4837167 C32.4133564,46.4837167 32.1322133,46.3820628 32.1322133,46.3820628 C32.1322133,46.3820628 25.2904302,43.7947507 25.1367723,43.7339794 C24.9829035,43.673429 24.963063,43.6420489 24.963063,43.4727731 C24.963063,43.2862604 24.963063,31.9697532 24.963063,31.9697532 C24.963063,31.343256 28.408544,31.027466 32.5007387,31.0343166 Z" id="path7" fill-opacity="0.3" fill="#3E485B" fill-rule="nonzero"></path>
                </g>
            </g>
        </g>
    </g>
</svg>