<?xml version="1.0" encoding="UTF-8"?>
<svg width="158px" height="393px" viewBox="0 0 158 393" version="1.1" xmlns="http://www.w3.org/2000/svg" xmlns:xlink="http://www.w3.org/1999/xlink">
    <!-- Generator: Sketch 52.2 (67145) - http://www.bohemiancoding.com/sketch -->
    <title>Group 2</title>
    <desc>Created with Sketch.</desc>
    <g id="Page-2" stroke="none" stroke-width="1" fill="none" fill-rule="evenodd">
        <g id="SW-/-Send-Funds-2.0" transform="translate(-433.000000, -225.000000)">
            <g id="Group-2" transform="translate(434.000000, 226.000000)">
                <g id="Group">
                    <path d="M53.590946,251.543635 C48.2549923,239.458199 40.6298724,228.610104 31.2651499,219.548913 L31.2294022,219.572221 C13.2688433,201.262226 2.19315438,176.174546 2.19315438,148.5 C1.11736022,131.077049 0.450693557,113.577049 0.193154381,96 C-0.0643847938,78.4229513 -0.0643847938,50.4229513 0.193154381,12 C0.193154381,5.372583 5.56573738,-1.42108547e-13 12.1931544,-1.42108547e-13 C41.5264877,-1.42108547e-13 114.859821,-1.42108547e-13 144.193154,-1.42108547e-13 C150.820571,-1.42108547e-13 156.193154,5.372583 156.193154,12 L156.193154,96 L154.193154,148.5 C154.193154,176.174546 143.117465,201.262226 125.156907,219.572221 L125.121159,219.548913 C115.756436,228.610104 108.131316,239.458199 102.795363,251.543635 L53.590946,251.543635 Z" id="Path" stroke-opacity="0.2" stroke="#3E485B" fill="#F5F6F8" fill-rule="nonzero"></path>
                    <rect id="Rectangle" stroke-opacity="0.2" stroke="#3E485B" fill="#FFFFFF" fill-rule="nonzero" x="22.5" y="40.5" width="111" height="111" rx="4"></rect>
                    <rect id="Rectangle" fill="#3E485B" fill-rule="nonzero" x="58" y="287" width="40" height="33" rx="1"></rect>
                    <path d="M74,320 L81,320 L81,391 C81,391.552285 80.5522847,392 80,392 L75,392 C74.4477153,392 74,391.552285 74,391 L74,320 Z" id="Rectangle" fill="#3E485B" fill-rule="nonzero"></path>
                    <path d="M70.1249997,269.250014 C70.0624999,269.16668 70.0312499,269.072931 70.0312499,268.968764 C70.0312499,268.864598 70.0624999,268.781265 70.1249997,268.718765 L76.7499839,262.125031 C76.8124838,262.041697 76.8958171,262.000031 76.9999833,262.000031 C77.1041496,262.000031 77.1874829,262.041697 77.2499827,262.125031 L83.8749669,268.718765 C83.9374668,268.781265 83.9687167,268.864598 83.9687167,268.968764 C83.9687167,269.072931 83.9374668,269.16668 83.8749669,269.250014 L83.6249675,269.468763 C83.5624677,269.531263 83.4791344,269.562513 83.3749681,269.562513 C83.2708019,269.562513 83.1770521,269.531263 83.0937188,269.468763 L77.531232,263.875027 L77.531232,275.624999 C77.531232,275.729165 77.4947736,275.817707 77.4218573,275.890623 C77.348941,275.963539 77.2603992,275.999998 77.1562329,275.999998 L76.8437337,275.999998 C76.7395674,275.999998 76.6510257,275.963539 76.5781093,275.890623 C76.505193,275.817707 76.4687346,275.729165 76.4687346,275.624999 L76.4687346,263.875027 L70.9062478,269.468763 C70.8229145,269.531263 70.7291648,269.562513 70.6249985,269.562513 C70.5208323,269.562513 70.437499,269.531263 70.3749991,269.468763 L70.1249997,269.250014 Z" id="Arrow-up" fill="#1B1B1E"></path>
                </g>
                <g id="Group" transform="translate(45.000000, 54.000000)">
                    <circle id="Oval" stroke-opacity="0.2" stroke="#3E485B" fill-rule="nonzero" cx="32.5" cy="32.5" r="32.5"></circle>
                    <path d="M4.7421875,82 L4.7421875,74.8417969 L6.16796875,74.8417969 L7.86230469,79.9101562 C8.01855547,80.3821638 8.13248662,80.7353504 8.20410156,80.9697266 C8.28548218,80.7093086 8.41243403,80.3268254 8.58496094,79.8222656 L10.2988281,74.8417969 L11.5732422,74.8417969 L11.5732422,82 L10.6601562,82 L10.6601562,76.0087891 L8.58007812,82 L7.72558594,82 L5.65527344,75.90625 L5.65527344,82 L4.7421875,82 Z M12.9501953,83.9970703 L12.8525391,83.171875 C13.0445973,83.2239586 13.2122389,83.25 13.3554688,83.25 C13.5507822,83.25 13.7070307,83.2174482 13.8242188,83.1523438 C13.9414068,83.0872393 14.0374345,82.9960943 14.1123047,82.8789062 C14.1676435,82.7910152 14.2571608,82.5729184 14.3808594,82.2246094 C14.3971355,82.175781 14.4231769,82.1041671 14.4589844,82.0097656 L12.4912109,76.8144531 L13.4384766,76.8144531 L14.5175781,79.8173828 C14.6575528,80.1982441 14.7828771,80.5986307 14.8935547,81.0185547 C14.9944667,80.6149068 15.1149082,80.2210306 15.2548828,79.8369141 L16.3632812,76.8144531 L17.2421875,76.8144531 L15.2695312,82.0878906 C15.0579417,82.6575549 14.8935553,83.0498036 14.7763672,83.2646484 C14.6201164,83.5543634 14.4410817,83.7667636 14.2392578,83.9018555 C14.0374339,84.0369473 13.7965509,84.1044922 13.5166016,84.1044922 C13.3473299,84.1044922 13.1585297,84.0686853 12.9501953,83.9970703 Z M22.7011719,82 L22.7011719,75.6865234 L20.3427734,75.6865234 L20.3427734,74.8417969 L26.0166016,74.8417969 L26.0166016,75.6865234 L23.6484375,75.6865234 L23.6484375,82 L22.7011719,82 Z M27.0029297,82 L27.0029297,74.8417969 L30.1767578,74.8417969 C30.8147818,74.8417969 31.299803,74.9060866 31.6318359,75.034668 C31.9638688,75.1632493 32.2291657,75.3902979 32.4277344,75.7158203 C32.6263031,76.0413428 32.7255859,76.4010397 32.7255859,76.7949219 C32.7255859,77.3027369 32.5611996,77.7307925 32.2324219,78.0791016 C31.9036442,78.4274106 31.3958368,78.6487625 30.7089844,78.7431641 C30.9596367,78.8636074 31.1500645,78.9824213 31.2802734,79.0996094 C31.5569675,79.3535169 31.8190092,79.6708965 32.0664062,80.0517578 L33.3115234,82 L32.1201172,82 L31.1728516,80.5107422 C30.8961575,80.0810525 30.6682952,79.7522798 30.4892578,79.5244141 C30.3102205,79.2965483 30.1499031,79.1370447 30.0083008,79.0458984 C29.8666985,78.9547521 29.722657,78.8912762 29.5761719,78.8554688 C29.4687495,78.8326822 29.29297,78.8212891 29.0488281,78.8212891 L27.9501953,78.8212891 L27.9501953,82 L27.0029297,82 Z M27.9501953,78.0009766 L29.9863281,78.0009766 C30.419273,78.0009766 30.7578113,77.9562179 31.0019531,77.8666992 C31.246095,77.7771805 31.43164,77.6339528 31.5585938,77.4370117 C31.6855475,77.2400706 31.7490234,77.0260428 31.7490234,76.7949219 C31.7490234,76.4563785 31.6261406,76.178061 31.3803711,75.9599609 C31.1346016,75.7418609 30.7464219,75.6328125 30.2158203,75.6328125 L27.9501953,75.6328125 L27.9501953,78.0009766 Z M34.2294922,82 L34.2294922,74.8417969 L39.4052734,74.8417969 L39.4052734,75.6865234 L35.1767578,75.6865234 L35.1767578,77.8789062 L39.1367188,77.8789062 L39.1367188,78.71875 L35.1767578,78.71875 L35.1767578,81.1552734 L39.5712891,81.1552734 L39.5712891,82 L34.2294922,82 Z M40.3085938,82 L40.3085938,81.1210938 L43.9755859,76.5361328 C44.2360039,76.2106104 44.4833973,75.9274101 44.7177734,75.6865234 L40.7236328,75.6865234 L40.7236328,74.8417969 L45.8505859,74.8417969 L45.8505859,75.6865234 L41.8320312,80.6523438 L41.3974609,81.1552734 L45.9677734,81.1552734 L45.9677734,82 L40.3085938,82 Z M46.7001953,78.5136719 C46.7001953,77.3255149 47.0192025,76.3953484 47.6572266,75.7231445 C48.2952506,75.0509406 49.1188101,74.7148438 50.1279297,74.7148438 C50.7887403,74.7148438 51.3844375,74.8727198 51.9150391,75.1884766 C52.4456407,75.5042333 52.8500963,75.9444959 53.128418,76.5092773 C53.4067397,77.0740588 53.5458984,77.7145146 53.5458984,78.4306641 C53.5458984,79.1565792 53.3994155,79.8059867 53.1064453,80.3789062 C52.8134751,80.9518258 52.3984402,81.385578 51.8613281,81.6801758 C51.3242161,81.9747736 50.7447948,82.1220703 50.1230469,82.1220703 C49.4492154,82.1220703 48.8470079,81.9593115 48.3164062,81.6337891 C47.7858046,81.3082666 47.3837904,80.8639351 47.1103516,80.3007812 C46.8369127,79.7376274 46.7001953,79.1419302 46.7001953,78.5136719 Z M47.6767578,78.5283203 C47.6767578,79.3909548 47.9086891,80.0704728 48.3725586,80.5668945 C48.8364281,81.0633163 49.4182908,81.3115234 50.1181641,81.3115234 C50.8310583,81.3115234 51.4178037,81.0608749 51.878418,80.5595703 C52.3390323,80.0582657 52.5693359,79.3470098 52.5693359,78.4257812 C52.5693359,77.843096 52.4708669,77.3344748 52.2739258,76.8999023 C52.0769847,76.4653299 51.7889016,76.1284192 51.409668,75.8891602 C51.0304343,75.6499011 50.6048201,75.5302734 50.1328125,75.5302734 C49.4622362,75.5302734 48.8852563,75.7605771 48.4018555,76.2211914 C47.9184546,76.6818057 47.6767578,77.450841 47.6767578,78.5283203 Z M54.78125,82 L54.78125,74.8417969 L57.9550781,74.8417969 C58.5931021,74.8417969 59.0781233,74.9060866 59.4101562,75.034668 C59.7421892,75.1632493 60.007486,75.3902979 60.2060547,75.7158203 C60.4046234,76.0413428 60.5039062,76.4010397 60.5039062,76.7949219 C60.5039062,77.3027369 60.3395199,77.7307925 60.0107422,78.0791016 C59.6819645,78.4274106 59.1741571,78.6487625 58.4873047,78.7431641 C58.737957,78.8636074 58.9283848,78.9824213 59.0585938,79.0996094 C59.3352878,79.3535169 59.5973295,79.6708965 59.8447266,80.0517578 L61.0898438,82 L59.8984375,82 L58.9511719,80.5107422 C58.6744778,80.0810525 58.4466155,79.7522798 58.2675781,79.5244141 C58.0885408,79.2965483 57.9282234,79.1370447 57.7866211,79.0458984 C57.6450188,78.9547521 57.5009773,78.8912762 57.3544922,78.8554688 C57.2470698,78.8326822 57.0712903,78.8212891 56.8271484,78.8212891 L55.7285156,78.8212891 L55.7285156,82 L54.78125,82 Z M55.7285156,78.0009766 L57.7646484,78.0009766 C58.1975933,78.0009766 58.5361316,77.9562179 58.7802734,77.8666992 C59.0244153,77.7771805 59.2099603,77.6339528 59.3369141,77.4370117 C59.4638678,77.2400706 59.5273438,77.0260428 59.5273438,76.7949219 C59.5273438,76.4563785 59.4044609,76.178061 59.1586914,75.9599609 C58.9129219,75.7418609 58.5247422,75.6328125 57.9941406,75.6328125 L55.7285156,75.6328125 L55.7285156,78.0009766 Z" id="My-TREZOR" fill="#717A8A"></path>
                    <path d="M32.5123475,14 C27.5389421,14 23.5066909,18.2215086 23.5066909,23.4288389 L23.5066909,26.9542394 C21.761366,27.2810788 20,27.7325545 20,28.3095508 L20,46.7809438 C20,46.7809438 20,47.2989366 20.5388577,47.5232381 C22.5285998,48.3521591 30.3404534,51.2510624 32.1332686,51.9149064 C32.3694542,52.0024172 32.4192663,51.9999863 32.5011609,51.9999863 C32.5872768,51.9999863 32.6318122,52.0030801 32.8660982,51.9162324 C34.6555363,51.2539353 42.4944067,48.3477394 44.4716957,47.5280998 C44.9852252,47.3152896 45,46.7884573 45,46.7884573 L45,28.3104347 C45,27.7336595 43.2631179,27.2810788 41.517582,26.9540185 L41.517582,23.4286179 C41.5177931,18.2215086 37.4857529,14 32.5123475,14 Z M32.5123475,18.5061395 C35.4377559,18.5061395 37.2174849,20.3659634 37.2174849,23.4288389 L37.2174849,26.5001118 C33.9144751,26.248187 31.1076871,26.248187 27.8042551,26.5001118 L27.8042551,23.4288389 C27.8042551,20.3657424 29.5865169,18.5061395 32.5123475,18.5061395 Z M32.5007387,31.0343166 C36.5931445,31.0411672 40.0333488,31.360272 40.0333488,31.9701952 C40.0333488,31.9701952 40.0333488,43.3114528 40.0333488,43.4791817 C40.0333488,43.6471316 40.0080206,43.6754179 39.8558403,43.7357473 C39.703871,43.7962976 32.8591329,46.3860406 32.8591329,46.3860406 C32.8591329,46.3860406 32.5782009,46.4837167 32.5009498,46.4837167 C32.4133564,46.4837167 32.1322133,46.3820628 32.1322133,46.3820628 C32.1322133,46.3820628 25.2904302,43.7947507 25.1367723,43.7339794 C24.9829035,43.673429 24.963063,43.6420489 24.963063,43.4727731 C24.963063,43.2862604 24.963063,31.9697532 24.963063,31.9697532 C24.963063,31.343256 28.408544,31.027466 32.5007387,31.0343166 Z" id="path7" fill-opacity="0.3" fill="#3E485B" fill-rule="nonzero"></path>
                </g>
            </g>
        </g>
    </g>
</svg>